<mxfile host="65bd71144e">
    <diagram id="epdJzMUNwXPXIQj0w6-i" name="fabric">
        <mxGraphModel dx="4250" dy="1410" grid="1" gridSize="10" guides="1" tooltips="1" connect="1" arrows="1" fold="1" page="1" pageScale="1" pageWidth="850" pageHeight="1100" math="0" shadow="0">
            <root>
                <mxCell id="0"/>
                <mxCell id="1" parent="0"/>
                <mxCell id="T8j2yCrgbPLeNDtMDKNK-64" value="&lt;h1&gt;Fabric&lt;/h1&gt;" style="text;html=1;strokeColor=none;fillColor=none;spacing=5;spacingTop=-20;whiteSpace=wrap;overflow=hidden;rounded=0;align=center;verticalAlign=middle;horizontal=1;" parent="1" vertex="1">
                    <mxGeometry x="-1370" y="30" width="190" height="40" as="geometry"/>
                </mxCell>
                <mxCell id="4TTUC5ofWZnVixsoBgt_-18" value="" style="group" parent="1" vertex="1" connectable="0">
                    <mxGeometry x="-1395" y="90" width="240" height="174" as="geometry"/>
                </mxCell>
                <UserObject label="mini_core_tile" hedietLinkedDataV1_path="../../source/fabric/mini_core_tile.sv" id="4TTUC5ofWZnVixsoBgt_-19">
                    <mxCell style="whiteSpace=wrap;html=1;verticalAlign=top;" parent="4TTUC5ofWZnVixsoBgt_-18" vertex="1">
                        <mxGeometry width="240" height="173.99999999999997" as="geometry"/>
                    </mxCell>
                </UserObject>
                <object label="router" hedietLinkedDataV1_path="../../source/fabric/router/router.sv" id="4TTUC5ofWZnVixsoBgt_-20">
                    <mxCell style="whiteSpace=wrap;html=1;verticalAlign=top;" parent="4TTUC5ofWZnVixsoBgt_-18" vertex="1">
                        <mxGeometry x="21.818181818181817" y="28.994727272727257" width="152.7272727272728" height="100.19236363636362" as="geometry"/>
                    </mxCell>
                </object>
                <object label="mini_core_top" hedietLinkedDataV1_path="../../source/mini_core/mini_core_top.sv" id="4TTUC5ofWZnVixsoBgt_-21">
                    <mxCell style="whiteSpace=wrap;html=1;verticalAlign=top;" parent="4TTUC5ofWZnVixsoBgt_-18" vertex="1">
                        <mxGeometry x="130.90909090909088" y="100.17654545454542" width="98.1818181818182" height="63.27272727272726" as="geometry"/>
                    </mxCell>
                </object>
                <mxCell id="4TTUC5ofWZnVixsoBgt_-35" value="" style="group" parent="1" vertex="1" connectable="0">
                    <mxGeometry x="-1675" y="90" width="240" height="174" as="geometry"/>
                </mxCell>
                <UserObject label="mini_core_tile" hedietLinkedDataV1_path="../../source/fabric/mini_core_tile.sv" id="4TTUC5ofWZnVixsoBgt_-36">
                    <mxCell style="whiteSpace=wrap;html=1;verticalAlign=top;" parent="4TTUC5ofWZnVixsoBgt_-35" vertex="1">
                        <mxGeometry width="240" height="173.99999999999997" as="geometry"/>
                    </mxCell>
                </UserObject>
                <object label="router" hedietLinkedDataV1_path="../../source/fabric/router/router.sv" id="4TTUC5ofWZnVixsoBgt_-37">
                    <mxCell style="whiteSpace=wrap;html=1;verticalAlign=top;" parent="4TTUC5ofWZnVixsoBgt_-35" vertex="1">
                        <mxGeometry x="21.818181818181817" y="28.994727272727257" width="152.7272727272728" height="100.19236363636362" as="geometry"/>
                    </mxCell>
                </object>
                <object label="mini_core_top" hedietLinkedDataV1_path="../../source/mini_core/mini_core_top.sv" id="4TTUC5ofWZnVixsoBgt_-38">
                    <mxCell style="whiteSpace=wrap;html=1;verticalAlign=top;" parent="4TTUC5ofWZnVixsoBgt_-35" vertex="1">
                        <mxGeometry x="130.90909090909088" y="100.17654545454542" width="98.1818181818182" height="63.27272727272726" as="geometry"/>
                    </mxCell>
                </object>
                <mxCell id="4TTUC5ofWZnVixsoBgt_-39" value="" style="group" parent="1" vertex="1" connectable="0">
                    <mxGeometry x="-1115" y="90" width="240" height="174" as="geometry"/>
                </mxCell>
                <UserObject label="mini_core_tile" hedietLinkedDataV1_path="../../source/fabric/mini_core_tile.sv" id="4TTUC5ofWZnVixsoBgt_-40">
                    <mxCell style="whiteSpace=wrap;html=1;verticalAlign=top;" parent="4TTUC5ofWZnVixsoBgt_-39" vertex="1">
                        <mxGeometry width="240" height="173.99999999999997" as="geometry"/>
                    </mxCell>
                </UserObject>
                <object label="router" hedietLinkedDataV1_path="../../source/fabric/router/router.sv" id="4TTUC5ofWZnVixsoBgt_-41">
                    <mxCell style="whiteSpace=wrap;html=1;verticalAlign=top;" parent="4TTUC5ofWZnVixsoBgt_-39" vertex="1">
                        <mxGeometry x="21.818181818181817" y="28.994727272727257" width="152.7272727272728" height="100.19236363636362" as="geometry"/>
                    </mxCell>
                </object>
                <object label="mini_core_top" hedietLinkedDataV1_path="../../source/mini_core/mini_core_top.sv" id="4TTUC5ofWZnVixsoBgt_-42">
                    <mxCell style="whiteSpace=wrap;html=1;verticalAlign=top;" parent="4TTUC5ofWZnVixsoBgt_-39" vertex="1">
                        <mxGeometry x="130.90909090909088" y="100.17654545454542" width="98.1818181818182" height="63.27272727272726" as="geometry"/>
                    </mxCell>
                </object>
                <mxCell id="4TTUC5ofWZnVixsoBgt_-63" style="edgeStyle=none;html=1;exitX=1;exitY=0.25;exitDx=0;exitDy=0;entryX=0;entryY=0.25;entryDx=0;entryDy=0;" parent="1" source="4TTUC5ofWZnVixsoBgt_-37" target="4TTUC5ofWZnVixsoBgt_-20" edge="1">
                    <mxGeometry relative="1" as="geometry"/>
                </mxCell>
                <mxCell id="4TTUC5ofWZnVixsoBgt_-64" style="edgeStyle=none;html=1;exitX=1;exitY=0.25;exitDx=0;exitDy=0;entryX=0;entryY=0.25;entryDx=0;entryDy=0;" parent="1" source="4TTUC5ofWZnVixsoBgt_-20" target="4TTUC5ofWZnVixsoBgt_-41" edge="1">
                    <mxGeometry relative="1" as="geometry"/>
                </mxCell>
                <mxCell id="4TTUC5ofWZnVixsoBgt_-66" style="edgeStyle=none;html=1;exitX=0;exitY=0.5;exitDx=0;exitDy=0;entryX=1;entryY=0.5;entryDx=0;entryDy=0;" parent="1" source="4TTUC5ofWZnVixsoBgt_-20" target="4TTUC5ofWZnVixsoBgt_-37" edge="1">
                    <mxGeometry relative="1" as="geometry"/>
                </mxCell>
                <mxCell id="4TTUC5ofWZnVixsoBgt_-67" style="edgeStyle=none;html=1;exitX=0;exitY=0.5;exitDx=0;exitDy=0;entryX=1;entryY=0.5;entryDx=0;entryDy=0;" parent="1" source="4TTUC5ofWZnVixsoBgt_-41" target="4TTUC5ofWZnVixsoBgt_-20" edge="1">
                    <mxGeometry relative="1" as="geometry"/>
                </mxCell>
                <mxCell id="4TTUC5ofWZnVixsoBgt_-69" value="" style="group" parent="1" vertex="1" connectable="0">
                    <mxGeometry x="-1395" y="293" width="520" height="377" as="geometry"/>
                </mxCell>
                <UserObject label="mini_core_tile" hedietLinkedDataV1_path="../../source/fabric/mini_core_tile.sv" id="4TTUC5ofWZnVixsoBgt_-70">
                    <mxCell style="whiteSpace=wrap;html=1;verticalAlign=top;" parent="4TTUC5ofWZnVixsoBgt_-69" vertex="1">
                        <mxGeometry width="240" height="173.99999999999997" as="geometry"/>
                    </mxCell>
                </UserObject>
                <object label="router" hedietLinkedDataV1_path="../../source/fabric/router/router.sv" id="4TTUC5ofWZnVixsoBgt_-71">
                    <mxCell style="whiteSpace=wrap;html=1;verticalAlign=top;" parent="4TTUC5ofWZnVixsoBgt_-69" vertex="1">
                        <mxGeometry x="21.818181818181817" y="28.994727272727257" width="152.7272727272728" height="100.19236363636362" as="geometry"/>
                    </mxCell>
                </object>
                <object label="mini_core_top" hedietLinkedDataV1_path="../../source/mini_core/mini_core_top.sv" id="4TTUC5ofWZnVixsoBgt_-72">
                    <mxCell style="whiteSpace=wrap;html=1;verticalAlign=top;" parent="4TTUC5ofWZnVixsoBgt_-69" vertex="1">
                        <mxGeometry x="130.90909090909088" y="100.17654545454542" width="98.1818181818182" height="63.27272727272726" as="geometry"/>
                    </mxCell>
                </object>
                <mxCell id="YUpgrNiksA6dpzFoJJne-1" value="" style="group" parent="4TTUC5ofWZnVixsoBgt_-69" vertex="1" connectable="0">
                    <mxGeometry x="-280" y="-203" width="240" height="174" as="geometry"/>
                </mxCell>
                <UserObject label="mini_core_tile" hedietLinkedDataV1_path="../../source/fabric/mini_core_tile.sv" id="YUpgrNiksA6dpzFoJJne-2">
                    <mxCell style="whiteSpace=wrap;html=1;verticalAlign=top;" parent="YUpgrNiksA6dpzFoJJne-1" vertex="1">
                        <mxGeometry width="240" height="173.99999999999997" as="geometry"/>
                    </mxCell>
                </UserObject>
                <object label="router" hedietLinkedDataV1_path="../../source/fabric/router/router.sv" id="YUpgrNiksA6dpzFoJJne-3">
                    <mxCell style="whiteSpace=wrap;html=1;verticalAlign=top;" parent="YUpgrNiksA6dpzFoJJne-1" vertex="1">
                        <mxGeometry x="21.818181818181817" y="28.994727272727257" width="152.7272727272728" height="100.19236363636362" as="geometry"/>
                    </mxCell>
                </object>
                <object label="mini_core_top" hedietLinkedDataV1_path="../../source/mini_core/mini_core_top.sv" id="YUpgrNiksA6dpzFoJJne-4">
                    <mxCell style="whiteSpace=wrap;html=1;verticalAlign=top;" parent="YUpgrNiksA6dpzFoJJne-1" vertex="1">
                        <mxGeometry x="130.90909090909088" y="100.17654545454542" width="98.1818181818182" height="63.27272727272726" as="geometry"/>
                    </mxCell>
                </object>
                <mxCell id="YUpgrNiksA6dpzFoJJne-5" value="" style="group" parent="4TTUC5ofWZnVixsoBgt_-69" vertex="1" connectable="0">
                    <mxGeometry y="-203" width="240" height="174" as="geometry"/>
                </mxCell>
                <UserObject label="mini_core_tile" hedietLinkedDataV1_path="../../source/fabric/mini_core_tile.sv" id="YUpgrNiksA6dpzFoJJne-6">
                    <mxCell style="whiteSpace=wrap;html=1;verticalAlign=top;" parent="YUpgrNiksA6dpzFoJJne-5" vertex="1">
                        <mxGeometry width="240" height="173.99999999999997" as="geometry"/>
                    </mxCell>
                </UserObject>
                <object label="router" hedietLinkedDataV1_path="../../source/fabric/router/router.sv" id="YUpgrNiksA6dpzFoJJne-7">
                    <mxCell style="whiteSpace=wrap;html=1;verticalAlign=top;" parent="YUpgrNiksA6dpzFoJJne-5" vertex="1">
                        <mxGeometry x="21.818181818181817" y="28.994727272727257" width="152.7272727272728" height="100.19236363636362" as="geometry"/>
                    </mxCell>
                </object>
                <object label="mini_core_top" hedietLinkedDataV1_path="../../source/mini_core/mini_core_top.sv" id="YUpgrNiksA6dpzFoJJne-8">
                    <mxCell style="whiteSpace=wrap;html=1;verticalAlign=top;" parent="YUpgrNiksA6dpzFoJJne-5" vertex="1">
                        <mxGeometry x="130.90909090909088" y="100.17654545454542" width="98.1818181818182" height="63.27272727272726" as="geometry"/>
                    </mxCell>
                </object>
                <mxCell id="YUpgrNiksA6dpzFoJJne-9" value="" style="group" parent="4TTUC5ofWZnVixsoBgt_-69" vertex="1" connectable="0">
                    <mxGeometry x="280" y="-203" width="240" height="174" as="geometry"/>
                </mxCell>
                <UserObject label="mini_core_tile" hedietLinkedDataV1_path="../../source/fabric/mini_core_tile.sv" id="YUpgrNiksA6dpzFoJJne-10">
                    <mxCell style="whiteSpace=wrap;html=1;verticalAlign=top;" parent="YUpgrNiksA6dpzFoJJne-9" vertex="1">
                        <mxGeometry width="240" height="173.99999999999997" as="geometry"/>
                    </mxCell>
                </UserObject>
                <object label="router" hedietLinkedDataV1_path="../../source/fabric/router/router.sv" id="YUpgrNiksA6dpzFoJJne-11">
                    <mxCell style="whiteSpace=wrap;html=1;verticalAlign=top;" parent="YUpgrNiksA6dpzFoJJne-9" vertex="1">
                        <mxGeometry x="21.818181818181817" y="28.994727272727257" width="152.7272727272728" height="100.19236363636362" as="geometry"/>
                    </mxCell>
                </object>
                <object label="mini_core_top" hedietLinkedDataV1_path="../../source/mini_core/mini_core_top.sv" id="YUpgrNiksA6dpzFoJJne-12">
                    <mxCell style="whiteSpace=wrap;html=1;verticalAlign=top;" parent="YUpgrNiksA6dpzFoJJne-9" vertex="1">
                        <mxGeometry x="130.90909090909088" y="100.17654545454542" width="98.1818181818182" height="63.27272727272726" as="geometry"/>
                    </mxCell>
                </object>
                <mxCell id="YUpgrNiksA6dpzFoJJne-13" value="" style="group" parent="4TTUC5ofWZnVixsoBgt_-69" vertex="1" connectable="0">
                    <mxGeometry x="280" width="240" height="174" as="geometry"/>
                </mxCell>
                <UserObject label="mini_core_tile" hedietLinkedDataV1_path="../../source/fabric/mini_core_tile.sv" id="YUpgrNiksA6dpzFoJJne-14">
                    <mxCell style="whiteSpace=wrap;html=1;verticalAlign=top;" parent="YUpgrNiksA6dpzFoJJne-13" vertex="1">
                        <mxGeometry width="240" height="173.99999999999997" as="geometry"/>
                    </mxCell>
                </UserObject>
                <object label="router" hedietLinkedDataV1_path="../../source/fabric/router/router.sv" id="YUpgrNiksA6dpzFoJJne-15">
                    <mxCell style="whiteSpace=wrap;html=1;verticalAlign=top;" parent="YUpgrNiksA6dpzFoJJne-13" vertex="1">
                        <mxGeometry x="21.818181818181817" y="28.994727272727257" width="152.7272727272728" height="100.19236363636362" as="geometry"/>
                    </mxCell>
                </object>
                <object label="mini_core_top" hedietLinkedDataV1_path="../../source/mini_core/mini_core_top.sv" id="YUpgrNiksA6dpzFoJJne-16">
                    <mxCell style="whiteSpace=wrap;html=1;verticalAlign=top;" parent="YUpgrNiksA6dpzFoJJne-13" vertex="1">
                        <mxGeometry x="130.90909090909088" y="100.17654545454542" width="98.1818181818182" height="63.27272727272726" as="geometry"/>
                    </mxCell>
                </object>
                <mxCell id="YUpgrNiksA6dpzFoJJne-17" value="" style="group" parent="4TTUC5ofWZnVixsoBgt_-69" vertex="1" connectable="0">
                    <mxGeometry x="280" y="203" width="240" height="174" as="geometry"/>
                </mxCell>
                <UserObject label="mini_core_tile" hedietLinkedDataV1_path="../../source/fabric/mini_core_tile.sv" id="YUpgrNiksA6dpzFoJJne-18">
                    <mxCell style="whiteSpace=wrap;html=1;verticalAlign=top;" parent="YUpgrNiksA6dpzFoJJne-17" vertex="1">
                        <mxGeometry width="240" height="173.99999999999997" as="geometry"/>
                    </mxCell>
                </UserObject>
                <object label="router" hedietLinkedDataV1_path="../../source/fabric/router/router.sv" id="YUpgrNiksA6dpzFoJJne-19">
                    <mxCell style="whiteSpace=wrap;html=1;verticalAlign=top;" parent="YUpgrNiksA6dpzFoJJne-17" vertex="1">
                        <mxGeometry x="21.818181818181817" y="28.994727272727257" width="152.7272727272728" height="100.19236363636362" as="geometry"/>
                    </mxCell>
                </object>
                <object label="mini_core_top" hedietLinkedDataV1_path="../../source/mini_core/mini_core_top.sv" id="YUpgrNiksA6dpzFoJJne-20">
                    <mxCell style="whiteSpace=wrap;html=1;verticalAlign=top;" parent="YUpgrNiksA6dpzFoJJne-17" vertex="1">
                        <mxGeometry x="130.90909090909088" y="100.17654545454542" width="98.1818181818182" height="63.27272727272726" as="geometry"/>
                    </mxCell>
                </object>
                <mxCell id="YUpgrNiksA6dpzFoJJne-21" value="" style="group" parent="4TTUC5ofWZnVixsoBgt_-69" vertex="1" connectable="0">
                    <mxGeometry y="203" width="240" height="174" as="geometry"/>
                </mxCell>
                <UserObject label="mini_core_tile" hedietLinkedDataV1_path="../../source/fabric/mini_core_tile.sv" id="YUpgrNiksA6dpzFoJJne-22">
                    <mxCell style="whiteSpace=wrap;html=1;verticalAlign=top;" parent="YUpgrNiksA6dpzFoJJne-21" vertex="1">
                        <mxGeometry width="240" height="173.99999999999997" as="geometry"/>
                    </mxCell>
                </UserObject>
                <object label="router" hedietLinkedDataV1_path="../../source/fabric/router/router.sv" id="YUpgrNiksA6dpzFoJJne-23">
                    <mxCell style="whiteSpace=wrap;html=1;verticalAlign=top;" parent="YUpgrNiksA6dpzFoJJne-21" vertex="1">
                        <mxGeometry x="21.818181818181817" y="28.994727272727257" width="152.7272727272728" height="100.19236363636362" as="geometry"/>
                    </mxCell>
                </object>
                <object label="mini_core_top" hedietLinkedDataV1_path="../../source/mini_core/mini_core_top.sv" id="YUpgrNiksA6dpzFoJJne-24">
                    <mxCell style="whiteSpace=wrap;html=1;verticalAlign=top;" parent="YUpgrNiksA6dpzFoJJne-21" vertex="1">
                        <mxGeometry x="130.90909090909088" y="100.17654545454542" width="98.1818181818182" height="63.27272727272726" as="geometry"/>
                    </mxCell>
                </object>
                <mxCell id="4TTUC5ofWZnVixsoBgt_-73" value="" style="group" parent="1" vertex="1" connectable="0">
                    <mxGeometry x="-1675" y="293" width="240" height="174" as="geometry"/>
                </mxCell>
                <UserObject label="mini_core_tile" hedietLinkedDataV1_path="../../source/fabric/mini_core_tile.sv" id="4TTUC5ofWZnVixsoBgt_-74">
                    <mxCell style="whiteSpace=wrap;html=1;verticalAlign=top;" vertex="1" parent="4TTUC5ofWZnVixsoBgt_-73">
                        <mxGeometry width="240" height="173.99999999999997" as="geometry"/>
                    </mxCell>
                </UserObject>
                <object label="router" hedietLinkedDataV1_path="../../source/fabric/router/router.sv" id="4TTUC5ofWZnVixsoBgt_-75">
                    <mxCell style="whiteSpace=wrap;html=1;verticalAlign=top;" vertex="1" parent="4TTUC5ofWZnVixsoBgt_-73">
                        <mxGeometry x="21.818181818181817" y="28.994727272727257" width="152.7272727272728" height="100.19236363636362" as="geometry"/>
                    </mxCell>
                </object>
                <object label="mini_core_top" hedietLinkedDataV1_path="../../source/mini_core/mini_core_top.sv" id="4TTUC5ofWZnVixsoBgt_-76">
                    <mxCell style="whiteSpace=wrap;html=1;verticalAlign=top;" vertex="1" parent="4TTUC5ofWZnVixsoBgt_-73">
                        <mxGeometry x="130.90909090909088" y="100.17654545454542" width="98.1818181818182" height="63.27272727272726" as="geometry"/>
                    </mxCell>
                </object>
                <mxCell id="4TTUC5ofWZnVixsoBgt_-77" value="" style="group" connectable="0" vertex="1" parent="1">
                    <mxGeometry x="-1115" y="293" width="240" height="174" as="geometry"/>
                </mxCell>
                <UserObject label="mini_core_tile" hedietLinkedDataV1_path="../../source/fabric/mini_core_tile.sv" id="4TTUC5ofWZnVixsoBgt_-78">
                    <mxCell style="whiteSpace=wrap;html=1;verticalAlign=top;" vertex="1" parent="4TTUC5ofWZnVixsoBgt_-77">
                        <mxGeometry width="240" height="173.99999999999997" as="geometry"/>
                    </mxCell>
                </UserObject>
                <object label="router" hedietLinkedDataV1_path="../../source/fabric/router/router.sv" id="4TTUC5ofWZnVixsoBgt_-79">
                    <mxCell style="whiteSpace=wrap;html=1;verticalAlign=top;" vertex="1" parent="4TTUC5ofWZnVixsoBgt_-77">
                        <mxGeometry x="21.818181818181817" y="28.994727272727257" width="152.7272727272728" height="100.19236363636362" as="geometry"/>
                    </mxCell>
                </object>
                <object label="mini_core_top" hedietLinkedDataV1_path="../../source/mini_core/mini_core_top.sv" id="4TTUC5ofWZnVixsoBgt_-80">
                    <mxCell style="whiteSpace=wrap;html=1;verticalAlign=top;" vertex="1" parent="4TTUC5ofWZnVixsoBgt_-77">
                        <mxGeometry x="130.90909090909088" y="100.17654545454542" width="98.1818181818182" height="63.27272727272726" as="geometry"/>
                    </mxCell>
                </object>
                <mxCell id="4TTUC5ofWZnVixsoBgt_-85" style="edgeStyle=none;html=1;exitX=1;exitY=0.25;exitDx=0;exitDy=0;entryX=0;entryY=0.25;entryDx=0;entryDy=0;" edge="1" parent="1" source="4TTUC5ofWZnVixsoBgt_-75" target="4TTUC5ofWZnVixsoBgt_-71">
                    <mxGeometry relative="1" as="geometry"/>
                </mxCell>
                <mxCell id="4TTUC5ofWZnVixsoBgt_-86" style="edgeStyle=none;html=1;exitX=1;exitY=0.25;exitDx=0;exitDy=0;entryX=0;entryY=0.25;entryDx=0;entryDy=0;" edge="1" parent="1" source="4TTUC5ofWZnVixsoBgt_-71" target="4TTUC5ofWZnVixsoBgt_-79">
                    <mxGeometry relative="1" as="geometry"/>
                </mxCell>
                <mxCell id="4TTUC5ofWZnVixsoBgt_-88" style="edgeStyle=none;html=1;exitX=0;exitY=0.5;exitDx=0;exitDy=0;entryX=1;entryY=0.5;entryDx=0;entryDy=0;" edge="1" parent="1" source="4TTUC5ofWZnVixsoBgt_-71" target="4TTUC5ofWZnVixsoBgt_-75">
                    <mxGeometry relative="1" as="geometry"/>
                </mxCell>
                <mxCell id="4TTUC5ofWZnVixsoBgt_-89" style="edgeStyle=none;html=1;exitX=0;exitY=0.5;exitDx=0;exitDy=0;entryX=1;entryY=0.5;entryDx=0;entryDy=0;" edge="1" parent="1" source="4TTUC5ofWZnVixsoBgt_-79" target="4TTUC5ofWZnVixsoBgt_-71">
                    <mxGeometry relative="1" as="geometry"/>
                </mxCell>
                <mxCell id="4TTUC5ofWZnVixsoBgt_-91" style="edgeStyle=none;html=1;exitX=0.25;exitY=1;exitDx=0;exitDy=0;entryX=0.25;entryY=0;entryDx=0;entryDy=0;" edge="1" parent="1" source="4TTUC5ofWZnVixsoBgt_-37" target="4TTUC5ofWZnVixsoBgt_-75">
                    <mxGeometry relative="1" as="geometry"/>
                </mxCell>
                <mxCell id="4TTUC5ofWZnVixsoBgt_-93" style="edgeStyle=none;html=1;exitX=0.5;exitY=0;exitDx=0;exitDy=0;entryX=0.5;entryY=1;entryDx=0;entryDy=0;" edge="1" parent="1" source="4TTUC5ofWZnVixsoBgt_-75" target="4TTUC5ofWZnVixsoBgt_-37">
                    <mxGeometry relative="1" as="geometry"/>
                </mxCell>
                <mxCell id="4TTUC5ofWZnVixsoBgt_-94" style="edgeStyle=none;html=1;exitX=0.25;exitY=1;exitDx=0;exitDy=0;entryX=0.25;entryY=0;entryDx=0;entryDy=0;" edge="1" parent="1" source="4TTUC5ofWZnVixsoBgt_-20" target="4TTUC5ofWZnVixsoBgt_-71">
                    <mxGeometry relative="1" as="geometry"/>
                </mxCell>
                <mxCell id="4TTUC5ofWZnVixsoBgt_-95" style="edgeStyle=none;html=1;exitX=0.5;exitY=0;exitDx=0;exitDy=0;entryX=0.5;entryY=1;entryDx=0;entryDy=0;" edge="1" parent="1" source="4TTUC5ofWZnVixsoBgt_-71" target="4TTUC5ofWZnVixsoBgt_-20">
                    <mxGeometry relative="1" as="geometry"/>
                </mxCell>
                <mxCell id="4TTUC5ofWZnVixsoBgt_-96" style="edgeStyle=none;html=1;exitX=0.25;exitY=1;exitDx=0;exitDy=0;entryX=0.25;entryY=0;entryDx=0;entryDy=0;" edge="1" parent="1" source="4TTUC5ofWZnVixsoBgt_-41" target="4TTUC5ofWZnVixsoBgt_-79">
                    <mxGeometry relative="1" as="geometry"/>
                </mxCell>
                <mxCell id="4TTUC5ofWZnVixsoBgt_-97" style="edgeStyle=none;html=1;exitX=0.5;exitY=0;exitDx=0;exitDy=0;entryX=0.5;entryY=1;entryDx=0;entryDy=0;" edge="1" parent="1" source="4TTUC5ofWZnVixsoBgt_-79" target="4TTUC5ofWZnVixsoBgt_-41">
                    <mxGeometry relative="1" as="geometry"/>
                </mxCell>
                <mxCell id="4TTUC5ofWZnVixsoBgt_-100" value="" style="group" connectable="0" vertex="1" parent="1">
                    <mxGeometry x="-1395" y="496" width="240" height="174" as="geometry"/>
                </mxCell>
                <UserObject label="mini_core_tile" hedietLinkedDataV1_path="../../source/fabric/mini_core_tile.sv" id="4TTUC5ofWZnVixsoBgt_-101">
                    <mxCell style="whiteSpace=wrap;html=1;verticalAlign=top;" vertex="1" parent="4TTUC5ofWZnVixsoBgt_-100">
                        <mxGeometry width="240" height="173.99999999999997" as="geometry"/>
                    </mxCell>
                </UserObject>
                <object label="router" hedietLinkedDataV1_path="../../source/fabric/router/router.sv" id="4TTUC5ofWZnVixsoBgt_-102">
                    <mxCell style="whiteSpace=wrap;html=1;verticalAlign=top;" vertex="1" parent="4TTUC5ofWZnVixsoBgt_-100">
                        <mxGeometry x="21.818181818181817" y="28.994727272727257" width="152.7272727272728" height="100.19236363636362" as="geometry"/>
                    </mxCell>
                </object>
                <object label="mini_core_top" hedietLinkedDataV1_path="../../source/mini_core/mini_core_top.sv" id="4TTUC5ofWZnVixsoBgt_-103">
                    <mxCell style="whiteSpace=wrap;html=1;verticalAlign=top;" vertex="1" parent="4TTUC5ofWZnVixsoBgt_-100">
                        <mxGeometry x="130.90909090909088" y="100.17654545454542" width="98.1818181818182" height="63.27272727272726" as="geometry"/>
                    </mxCell>
                </object>
                <mxCell id="4TTUC5ofWZnVixsoBgt_-104" value="" style="group" connectable="0" vertex="1" parent="1">
                    <mxGeometry x="-1675" y="496" width="240" height="174" as="geometry"/>
                </mxCell>
                <UserObject label="mini_core_tile" hedietLinkedDataV1_path="../../source/fabric/mini_core_tile.sv" id="4TTUC5ofWZnVixsoBgt_-105">
                    <mxCell style="whiteSpace=wrap;html=1;verticalAlign=top;" vertex="1" parent="4TTUC5ofWZnVixsoBgt_-104">
                        <mxGeometry width="240" height="173.99999999999997" as="geometry"/>
                    </mxCell>
                </UserObject>
                <object label="router" hedietLinkedDataV1_path="../../source/fabric/router/router.sv" id="4TTUC5ofWZnVixsoBgt_-106">
                    <mxCell style="whiteSpace=wrap;html=1;verticalAlign=top;" vertex="1" parent="4TTUC5ofWZnVixsoBgt_-104">
                        <mxGeometry x="21.818181818181817" y="28.994727272727257" width="152.7272727272728" height="100.19236363636362" as="geometry"/>
                    </mxCell>
                </object>
                <object label="mini_core_top" hedietLinkedDataV1_path="../../source/mini_core/mini_core_top.sv" id="4TTUC5ofWZnVixsoBgt_-107">
                    <mxCell style="whiteSpace=wrap;html=1;verticalAlign=top;" vertex="1" parent="4TTUC5ofWZnVixsoBgt_-104">
                        <mxGeometry x="130.90909090909088" y="100.17654545454542" width="98.1818181818182" height="63.27272727272726" as="geometry"/>
                    </mxCell>
                </object>
                <mxCell id="4TTUC5ofWZnVixsoBgt_-108" value="" style="group" connectable="0" vertex="1" parent="1">
                    <mxGeometry x="-1115" y="496" width="240" height="174" as="geometry"/>
                </mxCell>
                <UserObject label="mini_core_tile" hedietLinkedDataV1_path="../../source/fabric/mini_core_tile.sv" id="4TTUC5ofWZnVixsoBgt_-109">
                    <mxCell style="whiteSpace=wrap;html=1;verticalAlign=top;" vertex="1" parent="4TTUC5ofWZnVixsoBgt_-108">
                        <mxGeometry width="240" height="173.99999999999997" as="geometry"/>
                    </mxCell>
                </UserObject>
                <object label="router" hedietLinkedDataV1_path="../../source/fabric/router/router.sv" id="4TTUC5ofWZnVixsoBgt_-110">
                    <mxCell style="whiteSpace=wrap;html=1;verticalAlign=top;" vertex="1" parent="4TTUC5ofWZnVixsoBgt_-108">
                        <mxGeometry x="21.818181818181817" y="28.994727272727257" width="152.7272727272728" height="100.19236363636362" as="geometry"/>
                    </mxCell>
                </object>
                <object label="mini_core_top" hedietLinkedDataV1_path="../../source/mini_core/mini_core_top.sv" id="4TTUC5ofWZnVixsoBgt_-111">
                    <mxCell style="whiteSpace=wrap;html=1;verticalAlign=top;" vertex="1" parent="4TTUC5ofWZnVixsoBgt_-108">
                        <mxGeometry x="130.90909090909088" y="100.17654545454542" width="98.1818181818182" height="63.27272727272726" as="geometry"/>
                    </mxCell>
                </object>
                <mxCell id="4TTUC5ofWZnVixsoBgt_-116" style="edgeStyle=none;html=1;exitX=1;exitY=0.25;exitDx=0;exitDy=0;entryX=0;entryY=0.25;entryDx=0;entryDy=0;" edge="1" parent="1" source="4TTUC5ofWZnVixsoBgt_-106" target="4TTUC5ofWZnVixsoBgt_-102">
                    <mxGeometry relative="1" as="geometry"/>
                </mxCell>
                <mxCell id="4TTUC5ofWZnVixsoBgt_-117" style="edgeStyle=none;html=1;exitX=1;exitY=0.25;exitDx=0;exitDy=0;entryX=0;entryY=0.25;entryDx=0;entryDy=0;" edge="1" parent="1" source="4TTUC5ofWZnVixsoBgt_-102" target="4TTUC5ofWZnVixsoBgt_-110">
                    <mxGeometry relative="1" as="geometry"/>
                </mxCell>
                <mxCell id="4TTUC5ofWZnVixsoBgt_-119" style="edgeStyle=none;html=1;exitX=0;exitY=0.5;exitDx=0;exitDy=0;entryX=1;entryY=0.5;entryDx=0;entryDy=0;" edge="1" parent="1" source="4TTUC5ofWZnVixsoBgt_-102" target="4TTUC5ofWZnVixsoBgt_-106">
                    <mxGeometry relative="1" as="geometry"/>
                </mxCell>
                <mxCell id="4TTUC5ofWZnVixsoBgt_-120" style="edgeStyle=none;html=1;exitX=0;exitY=0.5;exitDx=0;exitDy=0;entryX=1;entryY=0.5;entryDx=0;entryDy=0;" edge="1" parent="1" source="4TTUC5ofWZnVixsoBgt_-110" target="4TTUC5ofWZnVixsoBgt_-102">
                    <mxGeometry relative="1" as="geometry"/>
                </mxCell>
                <mxCell id="4TTUC5ofWZnVixsoBgt_-152" style="edgeStyle=none;html=1;exitX=0.25;exitY=1;exitDx=0;exitDy=0;entryX=0.25;entryY=0;entryDx=0;entryDy=0;" edge="1" parent="1" source="4TTUC5ofWZnVixsoBgt_-75" target="4TTUC5ofWZnVixsoBgt_-106">
                    <mxGeometry relative="1" as="geometry"/>
                </mxCell>
                <mxCell id="4TTUC5ofWZnVixsoBgt_-153" style="edgeStyle=none;html=1;exitX=0.5;exitY=0;exitDx=0;exitDy=0;entryX=0.5;entryY=1;entryDx=0;entryDy=0;" edge="1" parent="1" source="4TTUC5ofWZnVixsoBgt_-106" target="4TTUC5ofWZnVixsoBgt_-75">
                    <mxGeometry relative="1" as="geometry"/>
                </mxCell>
                <mxCell id="4TTUC5ofWZnVixsoBgt_-154" style="edgeStyle=none;html=1;exitX=0.25;exitY=1;exitDx=0;exitDy=0;entryX=0.25;entryY=0;entryDx=0;entryDy=0;" edge="1" parent="1" source="4TTUC5ofWZnVixsoBgt_-71" target="4TTUC5ofWZnVixsoBgt_-102">
                    <mxGeometry relative="1" as="geometry"/>
                </mxCell>
                <mxCell id="4TTUC5ofWZnVixsoBgt_-155" style="edgeStyle=none;html=1;exitX=0.5;exitY=0;exitDx=0;exitDy=0;entryX=0.5;entryY=1;entryDx=0;entryDy=0;" edge="1" parent="1" source="4TTUC5ofWZnVixsoBgt_-102" target="4TTUC5ofWZnVixsoBgt_-71">
                    <mxGeometry relative="1" as="geometry"/>
                </mxCell>
                <mxCell id="4TTUC5ofWZnVixsoBgt_-156" style="edgeStyle=none;html=1;exitX=0.25;exitY=1;exitDx=0;exitDy=0;entryX=0.25;entryY=0;entryDx=0;entryDy=0;" edge="1" parent="1" source="4TTUC5ofWZnVixsoBgt_-79" target="4TTUC5ofWZnVixsoBgt_-110">
                    <mxGeometry relative="1" as="geometry"/>
                </mxCell>
                <mxCell id="4TTUC5ofWZnVixsoBgt_-157" style="edgeStyle=none;html=1;exitX=0.5;exitY=0;exitDx=0;exitDy=0;entryX=0.5;entryY=1;entryDx=0;entryDy=0;" edge="1" parent="1" source="4TTUC5ofWZnVixsoBgt_-110" target="4TTUC5ofWZnVixsoBgt_-79">
                    <mxGeometry relative="1" as="geometry"/>
                </mxCell>
            </root>
        </mxGraphModel>
    </diagram>
    <diagram id="ivzACX5DH1ySDXppYQka" name="mini_core_tile">
        <mxGraphModel grid="1" page="1" gridSize="10" guides="1" tooltips="1" connect="1" arrows="1" fold="1" pageScale="1" pageWidth="850" pageHeight="1100" math="0" shadow="0">
            <root>
                <mxCell id="0"/>
                <mxCell id="1" parent="0"/>
                <object label="mini_core_tile" hedietLinkedDataV1_path="../../source/fabric/mini_core_tile.sv" id="l-HomuFSGnHIB0650J43-1">
                    <mxCell style="whiteSpace=wrap;html=1;verticalAlign=top;" parent="1" vertex="1">
                        <mxGeometry x="230" y="200" width="410" height="470" as="geometry"/>
                    </mxCell>
                </object>
                <object label="router" hedietLinkedDataV1_path="../../source/fabric/router/router.sv" id="l-HomuFSGnHIB0650J43-2">
                    <mxCell style="whiteSpace=wrap;html=1;verticalAlign=top;" parent="1" vertex="1">
                        <mxGeometry x="261.53846153846155" y="256.4" width="252.3076923076923" height="263.2" as="geometry"/>
                    </mxCell>
                </object>
                <object label="mini_core_top" hedietLinkedDataV1_path="../../source/mini_core/mini_core_top.sv" id="l-HomuFSGnHIB0650J43-3">
                    <mxCell style="whiteSpace=wrap;html=1;verticalAlign=top;" parent="1" vertex="1">
                        <mxGeometry x="466.53846153846155" y="463.2" width="141.9230769230769" height="169.2" as="geometry"/>
                    </mxCell>
                </object>
                <mxCell id="85E3ImTF4qyeOsI18sPj-1" value="&lt;h1&gt;mini_core_tile&lt;/h1&gt;" style="text;html=1;strokeColor=none;fillColor=none;spacing=5;spacingTop=-20;whiteSpace=wrap;overflow=hidden;rounded=0;align=center;verticalAlign=middle;" parent="1" vertex="1">
                    <mxGeometry x="323.8499999999999" y="90" width="190" height="40" as="geometry"/>
                </mxCell>
            </root>
        </mxGraphModel>
    </diagram>
    <diagram id="YKdvv05w4KDAUPQBwIsd" name="mini_core_top">
        <mxGraphModel dx="1035" dy="705" grid="1" gridSize="10" guides="1" tooltips="1" connect="1" arrows="1" fold="1" page="1" pageScale="1" pageWidth="850" pageHeight="1100" background="none" math="0" shadow="0">
            <root>
                <mxCell id="0"/>
                <mxCell id="1" parent="0"/>
                <UserObject label="&lt;div style=&quot;&quot;&gt;mini_core_top&lt;/div&gt;" hedietLinkedDataV1_path="../../source/mini_core/mini_core_top.sv" id="14">
                    <mxCell style="rounded=1;whiteSpace=wrap;html=1;align=center;verticalAlign=top;" parent="1" vertex="1">
                        <mxGeometry x="260" y="130" width="330" height="390" as="geometry"/>
                    </mxCell>
                </UserObject>
                <mxCell id="29" style="edgeStyle=none;html=1;exitX=0.277;exitY=0.002;exitDx=0;exitDy=0;entryX=0.25;entryY=0;entryDx=0;entryDy=0;exitPerimeter=0;" parent="1" source="14" target="13" edge="1">
                    <mxGeometry relative="1" as="geometry"/>
                </mxCell>
                <mxCell id="23" style="edgeStyle=none;html=1;exitX=0.75;exitY=0;exitDx=0;exitDy=0;entryX=0.75;entryY=1;entryDx=0;entryDy=0;" parent="1" source="11" target="12" edge="1">
                    <mxGeometry relative="1" as="geometry"/>
                </mxCell>
                <UserObject label="mini_core" link="data:page/id,yMYKsYV2CRwJ0KZ0rtiw" hedietLinkedDataV1_path="../../source/mini_core/mini_core_top.sv" hedietLinkedDataV1_symbol="mini_core" id="11">
                    <mxCell style="rounded=1;whiteSpace=wrap;html=1;" parent="1" vertex="1">
                        <mxGeometry x="280" y="410" width="290" height="70" as="geometry"/>
                    </mxCell>
                </UserObject>
                <mxCell id="21" style="edgeStyle=none;html=1;exitX=0.25;exitY=1;exitDx=0;exitDy=0;entryX=0.25;entryY=0;entryDx=0;entryDy=0;" parent="1" source="12" target="11" edge="1">
                    <mxGeometry relative="1" as="geometry"/>
                </mxCell>
                <mxCell id="24" style="edgeStyle=none;html=1;exitX=0.87;exitY=1.001;exitDx=0;exitDy=0;exitPerimeter=0;" parent="1" source="12" edge="1">
                    <mxGeometry relative="1" as="geometry">
                        <mxPoint x="532" y="365" as="sourcePoint"/>
                        <mxPoint x="532" y="410" as="targetPoint"/>
                    </mxGeometry>
                </mxCell>
                <mxCell id="27" style="edgeStyle=none;html=1;exitX=0.75;exitY=0;exitDx=0;exitDy=0;entryX=0.75;entryY=1;entryDx=0;entryDy=0;" parent="1" source="12" target="13" edge="1">
                    <mxGeometry relative="1" as="geometry"/>
                </mxCell>
                <mxCell id="28" style="edgeStyle=none;html=1;exitX=0.5;exitY=0;exitDx=0;exitDy=0;entryX=0.5;entryY=1;entryDx=0;entryDy=0;" parent="1" source="12" target="13" edge="1">
                    <mxGeometry relative="1" as="geometry"/>
                </mxCell>
                <object label="mem_wrap" hedietLinkedDataV1_path="../../source/mini_core/mini_core_top.sv" hedietLinkedDataV1_symbol="mini_mem_wrap" id="12">
                    <mxCell style="rounded=1;whiteSpace=wrap;html=1;" parent="1" vertex="1">
                        <mxGeometry x="280" y="295" width="290" height="70" as="geometry"/>
                    </mxCell>
                </object>
                <mxCell id="26" style="edgeStyle=none;html=1;entryX=0.144;entryY=0.027;entryDx=0;entryDy=0;exitX=0.144;exitY=1.004;exitDx=0;exitDy=0;exitPerimeter=0;entryPerimeter=0;" parent="1" source="13" target="12" edge="1">
                    <mxGeometry relative="1" as="geometry">
                        <mxPoint x="322.4999999999998" y="250" as="sourcePoint"/>
                        <mxPoint x="322.4999999999998" y="295" as="targetPoint"/>
                    </mxGeometry>
                </mxCell>
                <mxCell id="30" style="edgeStyle=none;html=1;exitX=0.75;exitY=0;exitDx=0;exitDy=0;entryX=0.722;entryY=0.002;entryDx=0;entryDy=0;entryPerimeter=0;" parent="1" source="13" target="14" edge="1">
                    <mxGeometry relative="1" as="geometry"/>
                </mxCell>
                <mxCell id="13" value="io_ctrl" style="rounded=1;whiteSpace=wrap;html=1;" parent="1" vertex="1">
                    <mxGeometry x="280" y="180" width="290" height="70" as="geometry"/>
                </mxCell>
                <mxCell id="25" style="edgeStyle=none;html=1;exitX=0.124;exitY=0.012;exitDx=0;exitDy=0;entryX=0.121;entryY=1.025;entryDx=0;entryDy=0;entryPerimeter=0;exitPerimeter=0;" parent="1" source="11" target="12" edge="1">
                    <mxGeometry relative="1" as="geometry">
                        <mxPoint x="482.5" y="415" as="sourcePoint"/>
                        <mxPoint x="482.5000000000002" y="370" as="targetPoint"/>
                    </mxGeometry>
                </mxCell>
                <mxCell id="fcm0JTpcQdwlod8-AqyA-30" value="&lt;h1&gt;mini_core_top&lt;/h1&gt;" style="text;html=1;strokeColor=none;fillColor=none;spacing=5;spacingTop=-20;whiteSpace=wrap;overflow=hidden;rounded=0;labelBackgroundColor=#18141D;" parent="1" vertex="1">
                    <mxGeometry x="340" y="60" width="190" height="50" as="geometry"/>
                </mxCell>
            </root>
        </mxGraphModel>
    </diagram>
    <diagram id="G4HeQISwVZlmTRYL7oKJ" name="mini_core_mem_wrap">
        <mxGraphModel dx="1035" dy="705" grid="1" gridSize="10" guides="1" tooltips="1" connect="1" arrows="1" fold="1" page="1" pageScale="1" pageWidth="850" pageHeight="1100" math="0" shadow="0">
            <root>
                <mxCell id="0"/>
                <mxCell id="1" parent="0"/>
            </root>
        </mxGraphModel>
    </diagram>
    <diagram id="yMYKsYV2CRwJ0KZ0rtiw" name="mini_core">
        <mxGraphModel dx="1035" dy="705" grid="1" gridSize="10" guides="1" tooltips="1" connect="1" arrows="1" fold="1" page="1" pageScale="1" pageWidth="850" pageHeight="1100" background="none" math="0" shadow="0">
            <root>
                <mxCell id="0"/>
                <mxCell id="1" parent="0"/>
                <mxCell id="RbBIWwb7x5zN7ZK9Y70G-1" value="&lt;div style=&quot;&quot;&gt;#mini_core&lt;/div&gt;" style="rounded=1;whiteSpace=wrap;html=1;align=center;verticalAlign=top;" parent="1" vertex="1">
                    <mxGeometry x="100" y="110" width="580" height="300" as="geometry"/>
                </mxCell>
                <mxCell id="RbBIWwb7x5zN7ZK9Y70G-3" value="&lt;div style=&quot;&quot;&gt;decode&lt;/div&gt;" style="rounded=1;whiteSpace=wrap;html=1;align=center;verticalAlign=top;" parent="1" vertex="1">
                    <mxGeometry x="230" y="230" width="90" height="170" as="geometry"/>
                </mxCell>
                <mxCell id="RbBIWwb7x5zN7ZK9Y70G-4" value="&lt;div style=&quot;&quot;&gt;execute&lt;/div&gt;" style="rounded=1;whiteSpace=wrap;html=1;align=center;verticalAlign=top;" parent="1" vertex="1">
                    <mxGeometry x="335" y="230" width="90" height="170" as="geometry"/>
                </mxCell>
                <UserObject label="&lt;div style=&quot;&quot;&gt;fetch&lt;/div&gt;" id="RbBIWwb7x5zN7ZK9Y70G-5">
                    <mxCell style="rounded=1;whiteSpace=wrap;html=1;align=center;verticalAlign=top;" parent="1" vertex="1">
                        <mxGeometry x="130" y="230" width="90" height="170" as="geometry"/>
                    </mxCell>
                </UserObject>
                <mxCell id="RbBIWwb7x5zN7ZK9Y70G-6" value="&lt;div style=&quot;&quot;&gt;mem_access&lt;/div&gt;" style="rounded=1;whiteSpace=wrap;html=1;align=center;verticalAlign=top;" parent="1" vertex="1">
                    <mxGeometry x="440" y="230" width="90" height="170" as="geometry"/>
                </mxCell>
                <mxCell id="RbBIWwb7x5zN7ZK9Y70G-7" value="&lt;div style=&quot;&quot;&gt;wr_back&lt;/div&gt;" style="rounded=1;whiteSpace=wrap;html=1;align=center;verticalAlign=top;" parent="1" vertex="1">
                    <mxGeometry x="550" y="230" width="90" height="170" as="geometry"/>
                </mxCell>
                <mxCell id="0pI3UCUMWnOChNHo2n15-1" value="&lt;h1&gt;mini_core&lt;/h1&gt;" style="text;html=1;strokeColor=none;fillColor=none;spacing=5;spacingTop=-20;whiteSpace=wrap;overflow=hidden;rounded=0;labelBackgroundColor=#18141D;" parent="1" vertex="1">
                    <mxGeometry x="322.5" y="20" width="135" height="40" as="geometry"/>
                </mxCell>
            </root>
        </mxGraphModel>
    </diagram>
    <diagram id="RxsrAjMaPrElbOpgNKDO" name="big_core_top">
        <mxGraphModel dx="922" dy="426" grid="1" gridSize="10" guides="1" tooltips="1" connect="1" arrows="1" fold="1" page="1" pageScale="1" pageWidth="850" pageHeight="1100" math="0" shadow="0">
            <root>
                <mxCell id="0"/>
                <mxCell id="1" parent="0"/>
            </root>
        </mxGraphModel>
    </diagram>
    <diagram id="XC62MlED3ZfeMSzVem0h" name="big_core">
        <mxGraphModel dx="545" dy="341" grid="1" gridSize="10" guides="1" tooltips="1" connect="1" arrows="1" fold="1" page="1" pageScale="1" pageWidth="850" pageHeight="1100" math="0" shadow="0">
            <root>
                <mxCell id="0"/>
                <mxCell id="1" parent="0"/>
            </root>
        </mxGraphModel>
    </diagram>
    <diagram id="yL7Qqtbgr_HauNqS0v70" name="router">
        <mxGraphModel dx="545" dy="341" grid="1" gridSize="10" guides="1" tooltips="1" connect="1" arrows="1" fold="1" page="1" pageScale="1" pageWidth="850" pageHeight="1100" math="0" shadow="0">
            <root>
                <mxCell id="0"/>
                <mxCell id="1" parent="0"/>
            </root>
        </mxGraphModel>
    </diagram>
</mxfile>